<?xml version="1.0" standalone="no"?><svg xmlns="http://www.w3.org/2000/svg" viewBox="0 0 1440 320"><path fill="#00A0CE" fill-opacity="0.4" d="M0,192L40,197.3C80,203,160,213,240,202.7C320,192,400,160,480,138.7C560,117,640,107,720,133.3C800,160,880,224,960,234.7C1040,245,1120,203,1200,160C1280,117,1360,75,1400,53.3L1440,32L1440,320L1400,320C1360,320,1280,320,1200,320C1120,320,1040,320,960,320C880,320,800,320,720,320C640,320,560,320,480,320C400,320,320,320,240,320C160,320,80,320,40,320L0,320Z"></path></svg>